<svg width="208" height="69" viewBox="0 0 208 69" fill="none" xmlns="http://www.w3.org/2000/svg">
<rect width="208" height="68.1967" rx="17.0492" fill="url(#paint0_linear_113_332)"/>
<path d="M48.479 46.4917V21.7644H55.1921V41.0826H65.1892V46.4917H48.479ZM76.9341 46.8298C74.9218 46.8298 73.1992 46.4313 71.7665 45.6345C70.3337 44.8295 69.235 43.7107 68.4703 42.2779C67.7056 40.8371 67.3233 39.1669 67.3233 37.2673C67.3233 35.3676 67.7056 33.7015 68.4703 32.2687C69.235 30.8279 70.3337 29.709 71.7665 28.9122C73.1992 28.1072 74.9218 27.7048 76.9341 27.7048C78.9464 27.7048 80.6689 28.1072 82.1017 28.9122C83.5345 29.709 84.6332 30.8279 85.3979 32.2687C86.1625 33.7015 86.5449 35.3676 86.5449 37.2673C86.5449 39.1669 86.1625 40.8371 85.3979 42.2779C84.6332 43.7107 83.5345 44.8295 82.1017 45.6345C80.6689 46.4313 78.9464 46.8298 76.9341 46.8298ZM76.9824 41.9036C77.5458 41.9036 78.0328 41.7145 78.4433 41.3362C78.8538 40.9578 79.1718 40.4185 79.3972 39.7183C79.6225 39.018 79.7352 38.1849 79.7352 37.219C79.7352 36.245 79.6225 35.4119 79.3972 34.7197C79.1718 34.0194 78.8538 33.4801 78.4433 33.1018C78.0328 32.7235 77.5458 32.5343 76.9824 32.5343C76.3867 32.5343 75.8756 32.7235 75.449 33.1018C75.0224 33.4801 74.6964 34.0194 74.471 34.7197C74.2456 35.4119 74.1329 36.245 74.1329 37.219C74.1329 38.1849 74.2456 39.018 74.471 39.7183C74.6964 40.4185 75.0224 40.9578 75.449 41.3362C75.8756 41.7145 76.3867 41.9036 76.9824 41.9036ZM98.1841 53.8326C96.3247 53.8326 94.731 53.567 93.4028 53.0357C92.0828 52.5125 91.0565 51.7881 90.324 50.8624C89.5996 49.9448 89.1931 48.8904 89.1045 47.6991H95.5278C95.5922 48.0935 95.7532 48.4114 96.0108 48.6529C96.2684 48.8944 96.5984 49.0675 97.0008 49.1721C97.4114 49.2848 97.8702 49.3411 98.3773 49.3411C99.2385 49.3411 99.9509 49.1319 100.514 48.7133C101.086 48.2947 101.372 47.5381 101.372 46.4434V43.3042H101.178C100.937 43.932 100.567 44.4673 100.068 44.91C99.5686 45.3447 98.9689 45.6787 98.2686 45.9122C97.5683 46.1375 96.7996 46.2502 95.9625 46.2502C94.6424 46.2502 93.427 45.9444 92.3162 45.3326C91.2134 44.7209 90.328 43.7509 89.6599 42.4228C88.9999 41.0947 88.6699 39.3601 88.6699 37.219C88.6699 34.9813 89.016 33.1622 89.7082 31.7616C90.4085 30.361 91.31 29.3347 92.4128 28.6827C93.5236 28.0308 94.6907 27.7048 95.9142 27.7048C96.8318 27.7048 97.6367 27.8658 98.329 28.1877C99.0212 28.5016 99.6007 28.9242 100.068 29.4555C100.534 29.9787 100.889 30.5542 101.13 31.182H101.275V27.9462H107.94V46.4434C107.94 48.013 107.533 49.3452 106.72 50.4399C105.915 51.5426 104.78 52.3837 103.315 52.9633C101.851 53.5428 100.14 53.8326 98.1841 53.8326ZM98.4256 41.5173C99.0373 41.5173 99.5605 41.3482 99.9952 41.0102C100.438 40.664 100.776 40.173 101.009 39.5372C101.251 38.8932 101.372 38.1205 101.372 37.219C101.372 36.3014 101.251 35.5166 101.009 34.8646C100.776 34.2045 100.438 33.7015 99.9952 33.3553C99.5605 33.0012 99.0373 32.8241 98.4256 32.8241C97.8138 32.8241 97.2906 33.0012 96.856 33.3553C96.4293 33.7015 96.0993 34.2045 95.8659 34.8646C95.6405 35.5166 95.5278 36.3014 95.5278 37.219C95.5278 38.1366 95.6405 38.9174 95.8659 39.5613C96.0993 40.1972 96.4293 40.6842 96.856 41.0222C97.2906 41.3523 97.8138 41.5173 98.4256 41.5173ZM124.719 21.7644V46.4917H118.006V21.7644H124.719ZM134.662 36.0599V46.4917H127.997V27.9462H134.324V31.4718H134.517C134.92 30.2966 135.628 29.375 136.642 28.7069C137.665 28.0388 138.856 27.7048 140.216 27.7048C141.528 27.7048 142.667 28.0066 143.633 28.6103C144.607 29.206 145.36 30.027 145.891 31.0734C146.43 32.1198 146.696 33.3151 146.688 34.6593V46.4917H140.023V36.0599C140.031 35.1423 139.798 34.4219 139.323 33.8987C138.856 33.3755 138.204 33.1139 137.367 33.1139C136.819 33.1139 136.341 33.2346 135.93 33.4761C135.528 33.7095 135.218 34.0476 135 34.4903C134.783 34.9249 134.67 35.4481 134.662 36.0599Z" fill="white"/>
<defs>
<linearGradient id="paint0_linear_113_332" x1="-16.1916" y1="-26.7438" x2="415.53" y2="114.924" gradientUnits="userSpaceOnUse">
<stop stop-color="#3A8EF6"/>
<stop offset="1" stop-color="#6F3AFA"/>
</linearGradient>
</defs>
</svg>
