<svg width="209" height="69" viewBox="0 0 209 69" fill="none" xmlns="http://www.w3.org/2000/svg">
<rect x="0.785278" y="0.543945" width="208" height="68.1967" rx="17.0492" fill="url(#paint0_linear_119_345)"/>
<path d="M46.5938 47.0356V22.3084H53.3068V41.6266H63.304V47.0356H46.5938ZM75.0488 47.3737C73.0365 47.3737 71.314 46.9753 69.8812 46.1784C68.4484 45.3735 67.3497 44.2546 66.585 42.8219C65.8204 41.3811 65.438 39.7108 65.438 37.8112C65.438 35.9116 65.8204 34.2454 66.585 32.8126C67.3497 31.3718 68.4484 30.253 69.8812 29.4561C71.314 28.6512 73.0365 28.2487 75.0488 28.2487C77.0611 28.2487 78.7837 28.6512 80.2164 29.4561C81.6492 30.253 82.7479 31.3718 83.5126 32.8126C84.2773 34.2454 84.6596 35.9116 84.6596 37.8112C84.6596 39.7108 84.2773 41.3811 83.5126 42.8219C82.7479 44.2546 81.6492 45.3735 80.2164 46.1784C78.7837 46.9753 77.0611 47.3737 75.0488 47.3737ZM75.0971 42.4476C75.6606 42.4476 76.1475 42.2584 76.5581 41.8801C76.9686 41.5018 77.2865 40.9625 77.5119 40.2622C77.7373 39.5619 77.85 38.7288 77.85 37.7629C77.85 36.789 77.7373 35.9559 77.5119 35.2636C77.2865 34.5633 76.9686 34.024 76.5581 33.6457C76.1475 33.2674 75.6606 33.0783 75.0971 33.0783C74.5015 33.0783 73.9904 33.2674 73.5637 33.6457C73.1371 34.024 72.8111 34.5633 72.5858 35.2636C72.3604 35.9559 72.2477 36.789 72.2477 37.7629C72.2477 38.7288 72.3604 39.5619 72.5858 40.2622C72.8111 40.9625 73.1371 41.5018 73.5637 41.8801C73.9904 42.2584 74.5015 42.4476 75.0971 42.4476ZM96.2988 54.3766C94.4395 54.3766 92.8457 54.1109 91.5176 53.5797C90.1975 53.0565 89.1712 52.332 88.4387 51.4064C87.7143 50.4888 87.3078 49.4343 87.2193 48.243H93.6426C93.707 48.6374 93.868 48.9554 94.1255 49.1969C94.3831 49.4383 94.7131 49.6114 95.1156 49.716C95.5261 49.8287 95.9849 49.8851 96.492 49.8851C97.3533 49.8851 98.0656 49.6758 98.6291 49.2572C99.2006 48.8387 99.4863 48.082 99.4863 46.9873V43.8481H99.2931C99.0517 44.476 98.6814 45.0113 98.1824 45.454C97.6833 45.8886 97.0836 46.2227 96.3833 46.4561C95.6831 46.6815 94.9144 46.7942 94.0772 46.7942C92.7572 46.7942 91.5417 46.4883 90.4309 45.8766C89.3282 45.2648 88.4428 44.2949 87.7747 42.9668C87.1146 41.6386 86.7846 39.904 86.7846 37.7629C86.7846 35.5252 87.1307 33.7061 87.823 32.3055C88.5233 30.905 89.4248 29.8787 90.5275 29.2267C91.6383 28.5747 92.8055 28.2487 94.0289 28.2487C94.9466 28.2487 95.7515 28.4097 96.4437 28.7317C97.1359 29.0456 97.7155 29.4682 98.1824 29.9994C98.6492 30.5226 99.0034 31.0981 99.2449 31.726H99.3897V28.4902H106.055V46.9873C106.055 48.557 105.648 49.8891 104.835 50.9838C104.03 52.0865 102.895 52.9277 101.43 53.5072C99.9653 54.0868 98.2548 54.3766 96.2988 54.3766ZM96.5403 42.0612C97.152 42.0612 97.6752 41.8922 98.1099 41.5541C98.5526 41.208 98.8907 40.717 99.1241 40.0811C99.3656 39.4372 99.4863 38.6644 99.4863 37.7629C99.4863 36.8453 99.3656 36.0605 99.1241 35.4085C98.8907 34.7485 98.5526 34.2454 98.1099 33.8993C97.6752 33.5451 97.152 33.368 96.5403 33.368C95.9286 33.368 95.4054 33.5451 94.9707 33.8993C94.5441 34.2454 94.2141 34.7485 93.9806 35.4085C93.7553 36.0605 93.6426 36.8453 93.6426 37.7629C93.6426 38.6805 93.7553 39.4613 93.9806 40.1052C94.2141 40.7411 94.5441 41.2281 94.9707 41.5662C95.4054 41.8962 95.9286 42.0612 96.5403 42.0612ZM118.379 47.3737C116.367 47.3737 114.644 46.9753 113.211 46.1784C111.779 45.3735 110.68 44.2546 109.915 42.8219C109.15 41.3811 108.768 39.7108 108.768 37.8112C108.768 35.9116 109.15 34.2454 109.915 32.8126C110.68 31.3718 111.779 30.253 113.211 29.4561C114.644 28.6512 116.367 28.2487 118.379 28.2487C120.391 28.2487 122.114 28.6512 123.547 29.4561C124.979 30.253 126.078 31.3718 126.843 32.8126C127.607 34.2454 127.99 35.9116 127.99 37.8112C127.99 39.7108 127.607 41.3811 126.843 42.8219C126.078 44.2546 124.979 45.3735 123.547 46.1784C122.114 46.9753 120.391 47.3737 118.379 47.3737ZM118.427 42.4476C118.991 42.4476 119.478 42.2584 119.888 41.8801C120.299 41.5018 120.617 40.9625 120.842 40.2622C121.067 39.5619 121.18 38.7288 121.18 37.7629C121.18 36.789 121.067 35.9559 120.842 35.2636C120.617 34.5633 120.299 34.024 119.888 33.6457C119.478 33.2674 118.991 33.0783 118.427 33.0783C117.832 33.0783 117.32 33.2674 116.894 33.6457C116.467 34.024 116.141 34.5633 115.916 35.2636C115.69 35.9559 115.578 36.789 115.578 37.7629C115.578 38.7288 115.69 39.5619 115.916 40.2622C116.141 40.9625 116.467 41.5018 116.894 41.8801C117.32 42.2584 117.832 42.4476 118.427 42.4476ZM142.72 38.922V28.4902H149.385V47.0356H143.058V43.5101H142.865C142.462 44.6933 141.758 45.619 140.752 46.2871C139.746 46.9471 138.55 47.2771 137.166 47.2771C135.87 47.2771 134.735 46.9793 133.761 46.3837C132.795 45.788 132.042 44.967 131.503 43.9206C130.972 42.8742 130.702 41.6748 130.694 40.3226V28.4902H137.359V38.922C137.367 39.8396 137.6 40.56 138.059 41.0832C138.526 41.6064 139.178 41.868 140.015 41.868C140.571 41.868 141.05 41.7513 141.452 41.5179C141.863 41.2764 142.176 40.9383 142.394 40.5037C142.619 40.061 142.728 39.5338 142.72 38.922ZM163.834 28.4902V33.3197H151.615V28.4902H163.834ZM153.982 24.047H160.646V41.0712C160.646 41.3287 160.691 41.5461 160.779 41.7231C160.868 41.8922 161.005 42.021 161.19 42.1095C161.375 42.19 161.612 42.2302 161.902 42.2302C162.103 42.2302 162.337 42.2061 162.602 42.1578C162.876 42.1095 163.077 42.0693 163.206 42.0371L164.172 46.7217C163.874 46.8103 163.448 46.9189 162.892 47.0477C162.345 47.1765 161.693 47.261 160.936 47.3013C159.407 47.3818 158.123 47.2248 157.085 46.8304C156.046 46.4279 155.266 45.7961 154.742 44.9348C154.219 44.0735 153.966 42.9949 153.982 41.699V24.047Z" fill="white"/>
<defs>
<linearGradient id="paint0_linear_119_345" x1="-71" y1="-41.5" x2="417.12" y2="111.44" gradientUnits="userSpaceOnUse">
<stop stop-color="#3A8EF6"/>
<stop offset="0.611059" stop-color="#EA4335"/>
</linearGradient>
</defs>
</svg>
