<svg width="375" height="85" viewBox="0 0 375 85" fill="none" xmlns="http://www.w3.org/2000/svg">
<g filter="url(#filter0_di_104_344)">
<circle cx="332.207" cy="37.2074" r="16.2074" fill="url(#paint0_linear_104_344)"/>
</g>
<rect x="328.684" y="28.0466" width="7.04668" height="18.3214" rx="1.057" fill="white"/>
<rect x="341.368" y="33.6838" width="7.04668" height="18.3214" rx="1.057" transform="rotate(90 341.368 33.6838)" fill="white"/>
<path d="M84.4352 62.9706V49.7101H92.9072V73.2844H84.8649V68.8028H84.6194C84.1078 70.3069 83.2125 71.4836 81.9335 72.3329C80.6545 73.1719 79.1351 73.5914 77.3752 73.5914C75.7278 73.5914 74.2851 73.2128 73.0471 72.4556C71.8192 71.6985 70.8626 70.6548 70.177 69.3247C69.5017 67.9945 69.1589 66.47 69.1487 64.751V49.7101H77.6207V62.9706C77.631 64.1371 77.9277 65.0528 78.5109 65.7179C79.1044 66.383 79.9331 66.7155 80.9973 66.7155C81.7033 66.7155 82.3121 66.5672 82.8237 66.2704C83.3455 65.9635 83.7445 65.5337 84.0208 64.9812C84.3073 64.4185 84.4454 63.7483 84.4352 62.9706ZM97.2161 73.2844V49.7101H105.258V54.1917H105.504C105.995 52.7183 106.834 51.5518 108.021 50.6923C109.208 49.8329 110.62 49.4031 112.257 49.4031C113.915 49.4031 115.342 49.8431 116.539 50.723C117.736 51.5928 118.458 52.749 118.703 54.1917H118.949C119.348 52.749 120.197 51.5928 121.496 50.723C122.796 49.8431 124.32 49.4031 126.07 49.4031C128.331 49.4031 130.163 50.1296 131.565 51.5825C132.977 53.0355 133.683 54.9693 133.683 57.384V73.2844H125.211V59.5327C125.211 58.4993 124.95 57.691 124.428 57.1078C123.906 56.5143 123.205 56.2176 122.325 56.2176C121.456 56.2176 120.765 56.5143 120.253 57.1078C119.752 57.691 119.501 58.4993 119.501 59.5327V73.2844H111.398V59.5327C111.398 58.4993 111.137 57.691 110.615 57.1078C110.093 56.5143 109.392 56.2176 108.512 56.2176C107.929 56.2176 107.428 56.3506 107.008 56.6166C106.589 56.8827 106.261 57.2664 106.026 57.7677C105.801 58.2588 105.688 58.8472 105.688 59.5327V73.2844H97.2161ZM144.43 73.6528C142.926 73.6528 141.596 73.4072 140.44 72.9161C139.294 72.4147 138.393 71.6575 137.738 70.6446C137.084 69.6316 136.756 68.3424 136.756 66.7769C136.756 65.4877 136.976 64.3878 137.416 63.4771C137.856 62.5563 138.47 61.8042 139.258 61.221C140.046 60.6378 140.961 60.1927 142.005 59.8857C143.059 59.5788 144.195 59.3792 145.412 59.2872C146.732 59.1848 147.791 59.0621 148.589 58.9188C149.398 58.7653 149.981 58.5556 150.339 58.2895C150.697 58.0133 150.876 57.65 150.876 57.1998V57.1385C150.876 56.5245 150.641 56.0539 150.17 55.7264C149.699 55.399 149.096 55.2353 148.359 55.2353C147.551 55.2353 146.891 55.4144 146.379 55.7725C145.878 56.1204 145.576 56.6576 145.474 57.384H137.677C137.779 55.9516 138.235 54.6316 139.043 53.4243C139.862 52.2067 141.054 51.2346 142.619 50.5082C144.184 49.7715 146.139 49.4031 148.482 49.4031C150.17 49.4031 151.684 49.6026 153.025 50.0017C154.365 50.3905 155.506 50.9379 156.447 51.6439C157.389 52.3397 158.105 53.1582 158.596 54.0996C159.098 55.0307 159.348 56.0436 159.348 57.1385V73.2844H151.429V69.9693H151.245C150.774 70.8492 150.201 71.5603 149.526 72.1026C148.86 72.6449 148.098 73.0389 147.239 73.2844C146.389 73.53 145.453 73.6528 144.43 73.6528ZM147.193 68.3117C147.837 68.3117 148.441 68.1787 149.004 67.9127C149.577 67.6466 150.042 67.2629 150.4 66.7616C150.759 66.2602 150.938 65.6514 150.938 64.9352V62.9706C150.712 63.0627 150.472 63.1497 150.216 63.2316C149.971 63.3134 149.705 63.3902 149.418 63.4618C149.142 63.5334 148.845 63.5999 148.528 63.6613C148.221 63.7227 147.899 63.779 147.561 63.8301C146.906 63.9324 146.369 64.1013 145.949 64.3366C145.54 64.5617 145.233 64.8431 145.029 65.1807C144.834 65.5082 144.737 65.8765 144.737 66.2858C144.737 66.9406 144.967 67.442 145.428 67.7899C145.888 68.1378 146.476 68.3117 147.193 68.3117ZM171.868 60.0239V73.2844H163.396V41.852H171.561V54.1917H171.807C172.339 52.6876 173.224 51.516 174.462 50.677C175.7 49.8277 177.189 49.4031 178.928 49.4031C180.596 49.4031 182.044 49.7817 183.272 50.5389C184.51 51.296 185.466 52.3397 186.142 53.6698C186.827 55 187.165 56.5245 187.155 58.2435V73.2844H178.683V60.0239C178.693 58.8574 178.401 57.9417 177.808 57.2766C177.225 56.6115 176.391 56.279 175.306 56.279C174.621 56.279 174.017 56.4325 173.495 56.7394C172.984 57.0361 172.584 57.4659 172.298 58.0286C172.022 58.5812 171.878 59.2462 171.868 60.0239ZM208.158 51.6746C208.076 50.6514 207.693 49.8533 207.007 49.2803C206.332 48.7074 205.304 48.4209 203.922 48.4209C203.042 48.4209 202.321 48.5283 201.758 48.7432C201.206 48.9478 200.796 49.2292 200.53 49.5873C200.264 49.9454 200.126 50.3547 200.116 50.8151C200.096 51.1937 200.162 51.5365 200.316 51.8434C200.479 52.1402 200.735 52.4113 201.083 52.6569C201.431 52.8922 201.876 53.1071 202.418 53.3015C202.96 53.4959 203.605 53.6698 204.352 53.8233L206.93 54.3758C208.67 54.7442 210.159 55.2302 211.397 55.8339C212.635 56.4376 213.648 57.1487 214.436 57.9672C215.223 58.7756 215.802 59.6862 216.17 60.6992C216.548 61.7121 216.743 62.8172 216.753 64.0143C216.743 66.0812 216.226 67.8308 215.203 69.2633C214.18 70.6957 212.717 71.7854 210.813 72.5324C208.921 73.2793 206.644 73.6528 203.984 73.6528C201.252 73.6528 198.868 73.2486 196.832 72.4403C194.806 71.632 193.23 70.3888 192.104 68.7108C190.989 67.0225 190.426 64.8636 190.416 62.234H198.52C198.571 63.1958 198.811 64.0041 199.241 64.6589C199.671 65.3138 200.275 65.81 201.052 66.1477C201.84 66.4853 202.776 66.6541 203.861 66.6541C204.772 66.6541 205.534 66.5416 206.148 66.3165C206.762 66.0914 207.227 65.7793 207.544 65.3803C207.862 64.9812 208.025 64.5259 208.036 64.0143C208.025 63.5334 207.867 63.1139 207.56 62.7558C207.263 62.3874 206.772 62.06 206.086 61.7735C205.401 61.4768 204.475 61.2005 203.308 60.9447L200.177 60.2694C197.394 59.6657 195.2 58.6579 193.593 57.2459C191.997 55.8237 191.204 53.8847 191.214 51.429C191.204 49.4338 191.736 47.6893 192.81 46.1954C193.895 44.6913 195.394 43.5198 197.307 42.6807C199.231 41.8417 201.436 41.4222 203.922 41.4222C206.46 41.4222 208.655 41.8468 210.507 42.6961C212.358 43.5453 213.786 44.7425 214.789 46.2875C215.802 47.8223 216.313 49.618 216.323 51.6746H208.158ZM231.418 73.7142C228.901 73.7142 226.732 73.2333 224.911 72.2715C223.099 71.2994 221.703 69.9079 220.721 68.0968C219.749 66.2756 219.262 64.0962 219.262 61.5586C219.262 59.1234 219.754 56.9952 220.736 55.1739C221.718 53.3526 223.105 51.9355 224.895 50.9226C226.686 49.9096 228.799 49.4031 231.234 49.4031C233.014 49.4031 234.626 49.6794 236.068 50.2319C237.511 50.7844 238.744 51.5876 239.767 52.6415C240.79 53.6852 241.578 54.9539 242.131 56.4478C242.683 57.9417 242.96 59.6248 242.96 61.4973V63.4618H221.902V58.796H235.163C235.153 58.1207 234.979 57.5273 234.641 57.0157C234.314 56.4938 233.869 56.0897 233.306 55.8032C232.753 55.5065 232.124 55.3581 231.418 55.3581C230.732 55.3581 230.103 55.5065 229.53 55.8032C228.957 56.0897 228.497 56.4887 228.149 57.0003C227.811 57.5119 227.632 58.1105 227.612 58.796V63.8301C227.612 64.5873 227.77 65.2626 228.088 65.856C228.405 66.4495 228.86 66.9151 229.453 67.2527C230.047 67.5904 230.763 67.7592 231.602 67.7592C232.185 67.7592 232.717 67.6773 233.198 67.5136C233.689 67.3499 234.109 67.1146 234.457 66.8076C234.805 66.4904 235.061 66.1118 235.224 65.6719H242.96C242.694 67.309 242.064 68.7312 241.072 69.9386C240.079 71.1357 238.765 72.0668 237.127 72.7319C235.501 73.3867 233.597 73.7142 231.418 73.7142ZM254.889 60.0239V73.2844H246.417V41.852H254.582V54.1917H254.827C255.359 52.6876 256.244 51.516 257.483 50.677C258.721 49.8277 260.209 49.4031 261.949 49.4031C263.617 49.4031 265.064 49.7817 266.292 50.5389C267.53 51.296 268.487 52.3397 269.162 53.6698C269.848 55 270.185 56.5245 270.175 58.2435V73.2844H261.703V60.0239C261.713 58.8574 261.422 57.9417 260.828 57.2766C260.245 56.6115 259.411 56.279 258.327 56.279C257.641 56.279 257.037 56.4325 256.516 56.7394C256.004 57.0361 255.605 57.4659 255.318 58.0286C255.042 58.5812 254.899 59.2462 254.889 60.0239ZM280.926 73.6528C279.422 73.6528 278.092 73.4072 276.936 72.9161C275.79 72.4147 274.89 71.6575 274.235 70.6446C273.58 69.6316 273.252 68.3424 273.252 66.7769C273.252 65.4877 273.472 64.3878 273.912 63.4771C274.352 62.5563 274.966 61.8042 275.754 61.221C276.542 60.6378 277.458 60.1927 278.501 59.8857C279.555 59.5788 280.691 59.3792 281.909 59.2872C283.229 59.1848 284.288 59.0621 285.086 58.9188C285.894 58.7653 286.477 58.5556 286.835 58.2895C287.193 58.0133 287.373 57.65 287.373 57.1998V57.1385C287.373 56.5245 287.137 56.0539 286.667 55.7264C286.196 55.399 285.592 55.2353 284.855 55.2353C284.047 55.2353 283.387 55.4144 282.876 55.7725C282.374 56.1204 282.072 56.6576 281.97 57.384H274.173C274.276 55.9516 274.731 54.6316 275.539 53.4243C276.358 52.2067 277.55 51.2346 279.115 50.5082C280.681 49.7715 282.635 49.4031 284.978 49.4031C286.667 49.4031 288.181 49.6026 289.521 50.0017C290.862 50.3905 292.002 50.9379 292.944 51.6439C293.885 52.3397 294.601 53.1582 295.093 54.0996C295.594 55.0307 295.845 56.0436 295.845 57.1385V73.2844H287.925V69.9693H287.741C287.27 70.8492 286.697 71.5603 286.022 72.1026C285.357 72.6449 284.595 73.0389 283.735 73.2844C282.886 73.53 281.95 73.6528 280.926 73.6528ZM283.689 68.3117C284.334 68.3117 284.937 68.1787 285.5 67.9127C286.073 67.6466 286.539 67.2629 286.897 66.7616C287.255 66.2602 287.434 65.6514 287.434 64.9352V62.9706C287.209 63.0627 286.968 63.1497 286.713 63.2316C286.467 63.3134 286.201 63.3902 285.914 63.4618C285.638 63.5334 285.342 63.5999 285.024 63.6613C284.717 63.7227 284.395 63.779 284.057 63.8301C283.403 63.9324 282.865 64.1013 282.446 64.3366C282.037 64.5617 281.73 64.8431 281.525 65.1807C281.331 65.5082 281.233 65.8765 281.233 66.2858C281.233 66.9406 281.464 67.442 281.924 67.7899C282.384 68.1378 282.973 68.3117 283.689 68.3117ZM313.951 49.7101V55.8492H298.419V49.7101H313.951ZM301.427 44.0621H309.899V65.7026C309.899 66.03 309.956 66.3063 310.068 66.5314C310.181 66.7462 310.355 66.9099 310.59 67.0225C310.825 67.1248 311.127 67.176 311.496 67.176C311.751 67.176 312.048 67.1453 312.386 67.0839C312.734 67.0225 312.989 66.9713 313.153 66.9304L314.381 72.8854C314.002 72.9979 313.46 73.1361 312.754 73.2998C312.058 73.4635 311.23 73.5709 310.268 73.6221C308.324 73.7244 306.692 73.5249 305.372 73.0235C304.052 72.5119 303.059 71.7087 302.394 70.6139C301.729 69.5191 301.407 68.148 301.427 66.5007V44.0621Z" fill="url(#paint1_linear_104_344)"/>
<path d="M5.5 4V22H18V15H35C41.5 15 45 20 46 23.5C46.8 26.3 44 31.3333 42.5 33.5L52.5 40C55.5 38.5 59.5 30.5 58 18.5C56.8 8.9 43.8333 4.83333 37.5 4H5.5Z" fill="url(#paint2_linear_104_344)"/>
<path d="M18 42.5C14.4 37.3 8.16667 34.3333 5.5 33.5V72H18V42.5Z" fill="url(#paint3_linear_104_344)"/>
<path d="M27 72.5C33.4 46.9 11.6667 32.1667 0 28C13.8333 29 41.8 39.3 43 72.5H27Z" fill="url(#paint4_linear_104_344)"/>
<path d="M50.5 72.5C47.3 37.3 15.5 26.8334 0 26C40.4 18.8 61.1667 54 66.5 72.5H50.5Z" fill="url(#paint5_linear_104_344)"/>
<defs>
<filter id="filter0_di_104_344" x="290.338" y="0.740797" width="83.738" height="83.7381" filterUnits="userSpaceOnUse" color-interpolation-filters="sRGB">
<feFlood flood-opacity="0" result="BackgroundImageFix"/>
<feColorMatrix in="SourceAlpha" type="matrix" values="0 0 0 0 0 0 0 0 0 0 0 0 0 0 0 0 0 0 127 0" result="hardAlpha"/>
<feOffset dy="5.40245"/>
<feGaussianBlur stdDeviation="12.8308"/>
<feComposite in2="hardAlpha" operator="out"/>
<feColorMatrix type="matrix" values="0 0 0 0 0.0862745 0 0 0 0 0.470588 0 0 0 0 0.94902 0 0 0 0.2 0"/>
<feBlend mode="normal" in2="BackgroundImageFix" result="effect1_dropShadow_104_344"/>
<feBlend mode="normal" in="SourceGraphic" in2="effect1_dropShadow_104_344" result="shape"/>
<feColorMatrix in="SourceAlpha" type="matrix" values="0 0 0 0 0 0 0 0 0 0 0 0 0 0 0 0 0 0 127 0" result="hardAlpha"/>
<feOffset dy="5.40245"/>
<feGaussianBlur stdDeviation="2.70123"/>
<feComposite in2="hardAlpha" operator="arithmetic" k2="-1" k3="1"/>
<feColorMatrix type="matrix" values="0 0 0 0 0 0 0 0 0 0 0 0 0 0 0 0 0 0 0.12 0"/>
<feBlend mode="normal" in2="shape" result="effect2_innerShadow_104_344"/>
</filter>
<linearGradient id="paint0_linear_104_344" x1="313.477" y1="8.28834" x2="387.148" y2="16.2146" gradientUnits="userSpaceOnUse">
<stop stop-color="#3A8EF6"/>
<stop offset="1" stop-color="#6F3AFA"/>
</linearGradient>
<linearGradient id="paint1_linear_104_344" x1="47.6168" y1="10.8923" x2="500.015" y2="243.961" gradientUnits="userSpaceOnUse">
<stop stop-color="#3A8EF6"/>
<stop offset="1" stop-color="#6F3AFA"/>
</linearGradient>
<linearGradient id="paint2_linear_104_344" x1="70" y1="11" x2="-3" y2="66" gradientUnits="userSpaceOnUse">
<stop stop-color="#5368F8"/>
<stop offset="1" stop-color="#3F88F7"/>
</linearGradient>
<linearGradient id="paint3_linear_104_344" x1="70" y1="11" x2="-3" y2="66" gradientUnits="userSpaceOnUse">
<stop stop-color="#5368F8"/>
<stop offset="1" stop-color="#3F88F7"/>
</linearGradient>
<linearGradient id="paint4_linear_104_344" x1="-11.5" y1="25.5" x2="74.5" y2="70" gradientUnits="userSpaceOnUse">
<stop stop-color="#499AFF"/>
<stop offset="1" stop-color="#B4D5FF"/>
</linearGradient>
<linearGradient id="paint5_linear_104_344" x1="-11.5" y1="25.5" x2="74.5" y2="70" gradientUnits="userSpaceOnUse">
<stop stop-color="#499AFF"/>
<stop offset="1" stop-color="#B4D5FF"/>
</linearGradient>
</defs>
</svg>
